P3
16 1 15
0 0 0
2 3 5
7 2 5
0 8 5
10 5 3
6 5 5
11 11 12
15 14 14
15 0 5
15 10 0
15 14 2
0 13 3
2 10 15
8 7 9
15 7 10
15 12 10
